<svg xmlns="http://www.w3.org/2000/svg" viewBox="0 0 95.49 81.75">
  <defs>
    <style>
      .cls-1 {
        fill: #f4f7fa;
      }
    </style>
  </defs>
  <title>logo</title>
  <g id="Livello_2" data-name="Livello 2">
    <g id="Text">
      <g>
        <circle class="cls-1" cx="9.32" cy="72.43" r="9.32" transform="translate(-48.49 27.81) rotate(-45)"/>
        <path class="cls-1" d="M95.49,50.21A31.55,31.55,0,0,0,63.94,18.66a32.4,32.4,0,0,0-5.33.45,2.92,2.92,0,0,1-2.4-.66,3,3,0,0,1-1-2.26V16.1a16.1,16.1,0,1,0-21,15.27,3,3,0,0,1,1.89,1.74A3.08,3.08,0,0,1,36,35.68,31.54,31.54,0,1,0,95.49,50.21Z"/>
      </g>
    </g>
  </g>
</svg>
